<?xml version="1.0" standalone="no"?>
<!DOCTYPE svg PUBLIC "-//W3C//DTD SVG 20010904//EN"
 "http://www.w3.org/TR/2001/REC-SVG-20010904/DTD/svg10.dtd">
<svg version="1.0" xmlns="http://www.w3.org/2000/svg"
 width="500.000000pt" height="500.000000pt" viewBox="0 0 500.000000 500.000000"
 preserveAspectRatio="xMidYMid meet">

<g transform="translate(0.000000,500.000000) scale(0.100000,-0.100000)"
fill="#000000" stroke="none">
<path d="M2796 4618 c5 -23 0 -33 -24 -56 -62 -58 -171 -67 -323 -27 -135 35
-142 30 -14 -11 135 -43 235 -48 308 -16 61 27 85 79 57 122 -8 11 -9 8 -4
-12z"/>
<path d="M2158 4573 c17 -2 47 -2 65 0 17 2 3 4 -33 4 -36 0 -50 -2 -32 -4z"/>
<path d="M2078 4563 c7 -3 16 -2 19 1 4 3 -2 6 -13 5 -11 0 -14 -3 -6 -6z"/>
<path d="M2283 4563 c9 -2 23 -2 30 0 6 3 -1 5 -18 5 -16 0 -22 -2 -12 -5z"/>
<path d="M2125 4498 c33 -18 45 -40 45 -82 0 -83 -86 -186 -181 -215 l-34 -11
34 5 c101 15 199 127 201 228 0 30 -47 87 -72 87 -7 0 -4 -6 7 -12z"/>
<path d="M1884 4468 l-29 -33 33 29 c30 28 37 36 29 36 -2 0 -16 -15 -33 -32z"/>
<path d="M2306 4429 c-46 -42 -83 -88 -182 -228 -110 -157 -189 -230 -272
-251 l-37 -10 44 6 c68 8 155 59 216 127 29 33 85 113 124 178 40 65 92 141
117 168 55 61 50 66 -10 10z"/>
<path d="M1811 4344 c0 -11 3 -14 6 -6 3 7 2 16 -1 19 -3 4 -6 -2 -5 -13z"/>
<path d="M2303 4235 c-9 -25 2 -27 22 -5 17 18 17 20 1 20 -9 0 -19 -7 -23
-15z"/>
<path d="M1888 4193 c7 -3 16 -2 19 1 4 3 -2 6 -13 5 -11 0 -14 -3 -6 -6z"/>
<path d="M2390 4143 c20 -10 9 -34 -53 -111 -54 -66 -60 -78 -42 -77 25 0 114
103 107 124 -3 8 0 11 6 7 6 -3 14 -1 18 5 4 7 3 9 -4 5 -6 -4 -12 4 -14 21
-2 14 -9 28 -16 29 -7 1 -8 0 -2 -3z"/>
<path d="M2504 4137 c16 -12 15 -16 -16 -59 -18 -26 -48 -65 -66 -87 -30 -36
-31 -40 -11 -38 13 1 45 31 87 82 36 44 55 71 43 60 l-22 -19 7 28 c5 19 2 31
-7 37 -22 14 -35 10 -15 -4z"/>
<path d="M2623 4143 c27 -7 20 -26 -29 -73 -25 -25 -49 -54 -54 -65 -11 -28 6
-55 33 -54 l22 2 -22 4 c-13 2 -23 9 -23 14 0 5 25 36 55 69 30 33 55 66 55
73 0 18 -21 37 -39 36 -12 -1 -12 -2 2 -6z"/>
<path d="M2843 4143 c17 -4 17 -6 2 -31 l-16 -27 20 24 c23 25 20 42 -7 40
-15 -1 -15 -2 1 -6z"/>
<path d="M2213 4118 c-65 -72 -94 -161 -53 -164 9 0 10 1 3 3 -26 9 -12 41 47
111 47 56 57 72 42 72 -10 0 -28 -10 -39 -22z"/>
<path d="M2773 4124 c-18 -9 -58 -46 -90 -83 -31 -36 -45 -55 -30 -42 26 23
27 24 27 4 0 -28 34 -56 62 -50 21 4 21 4 -3 6 -15 0 -29 7 -32 15 -9 22 31
92 74 131 43 38 41 43 -8 19z"/>
<path d="M2794 4074 c-18 -14 -18 -15 4 -4 12 6 22 13 22 15 0 8 -5 6 -26 -11z"/>
<path d="M2849 4023 l-34 -38 38 34 c20 19 37 36 37 38 0 8 -8 0 -41 -34z"/>
<path d="M1714 4025 c-14 -21 -15 -31 -6 -50 7 -14 17 -25 24 -25 9 0 9 3 0
12 -9 9 -6 18 14 39 26 27 25 49 -1 49 -8 0 -22 -11 -31 -25z"/>
<path d="M2234 3998 l-19 -23 23 19 c21 18 27 26 19 26 -2 0 -12 -10 -23 -22z"/>
<path d="M1609 3619 c40 -38 51 -80 51 -199 0 -65 -4 -110 -10 -110 -21 0
-656 284 -677 303 l-23 20 0 -226 0 -227 40 0 41 0 -33 41 c-33 40 -33 43 -37
160 -4 138 -4 137 90 95 30 -13 173 -77 319 -141 146 -64 273 -124 283 -132
16 -15 17 -5 17 210 l0 227 -42 0 -42 0 23 -21z"/>
<path d="M2311 3486 c-6 -7 -23 -130 -37 -272 -18 -187 -29 -261 -39 -266 -48
-27 -118 -96 -154 -150 -57 -86 -81 -169 -81 -277 0 -150 42 -254 143 -356 34
-33 72 -68 83 -76 20 -13 24 -34 48 -288 14 -152 31 -279 37 -287 18 -21 371
-20 389 1 8 10 21 114 35 292 l22 276 29 20 c169 119 250 340 198 541 -28 111
-99 213 -205 295 -25 20 -26 23 -43 253 -10 128 -22 250 -27 271 l-10 37 -188
0 c-147 0 -191 -3 -200 -14z m326 -531 c117 -35 241 -150 283 -264 68 -180 30
-363 -102 -495 -107 -106 -237 -150 -380 -130 -287 42 -468 341 -368 607 59
156 204 276 365 301 46 7 147 -3 202 -19z"/>
<path d="M2413 2925 c-212 -46 -360 -259 -326 -468 30 -179 164 -315 342 -349
86 -16 161 -5 244 35 89 43 157 109 199 195 28 56 33 78 36 157 6 142 -37 248
-137 336 -60 53 -108 77 -190 95 -79 16 -88 16 -168 -1z m250 -43 c38 -17 84
-50 115 -82 215 -218 127 -569 -167 -665 -84 -27 -201 -18 -283 23 -108 54
-175 131 -208 240 -54 174 8 350 160 454 110 75 261 87 383 30z"/>
<path d="M2612 2610 l-113 -80 -81 55 c-79 54 -113 65 -113 35 0 -16 171 -140
193 -140 26 0 262 173 262 192 0 33 -34 19 -148 -62z"/>
<path d="M1210 3165 c-63 -18 -151 -75 -185 -119 -54 -73 -69 -117 -70 -206 0
-73 4 -93 28 -142 32 -65 103 -134 174 -169 41 -21 63 -24 153 -24 87 0 113 4
152 22 63 29 144 106 176 168 23 43 27 62 27 140 0 112 -21 164 -99 240 -92
89 -231 124 -356 90z m281 -117 c115 -53 174 -132 167 -224 -11 -135 -153
-228 -348 -229 -99 0 -174 20 -241 65 -161 106 -136 300 50 383 72 32 99 36
211 33 88 -2 114 -7 161 -28z"/>
<path d="M950 2412 c0 -29 2 -32 20 -22 12 7 129 9 337 8 l318 -3 -322 -154
c-183 -87 -329 -151 -338 -147 -13 4 -15 -6 -15 -66 0 -56 3 -69 12 -60 17 17
679 17 696 0 9 -9 12 -5 12 20 0 29 -2 32 -20 22 -12 -7 -128 -9 -332 -8
l-313 3 55 26 c30 15 132 64 225 109 278 133 364 172 375 165 6 -4 10 20 10
66 0 57 -3 70 -12 61 -17 -17 -679 -17 -696 0 -9 9 -12 5 -12 -20z"/>
<path d="M950 1647 l0 -247 41 0 41 0 -26 30 c-37 45 -47 95 -44 222 l3 113
174 3 173 2 -4 -69 c-2 -50 -9 -75 -22 -90 -19 -21 -19 -21 28 -21 l47 0 -20
26 c-16 21 -21 41 -21 91 l0 63 168 -2 167 -3 3 -113 c3 -127 -7 -177 -44
-222 l-26 -30 41 0 41 0 0 247 c0 192 -3 244 -12 235 -17 -17 -679 -17 -696 0
-9 9 -12 -43 -12 -235z"/>
</g>
</svg>
